<svg width="260" height="260" version="1.1" xmlns="http://www.w3.org/2000/svg" desc="Created with imagetracer.js version 1.2.6" ><path fill="rgb(0,0,0)" stroke="rgb(0,0,0)" stroke-width="1" opacity="0" d="M 0 0 L 260 0 L 260 260 L 0 260 L 0 0 Z M 75 64 L 60 68 L 48 74 L 36 83 L 23 103 L 18 120 L 18 141 L 20 150 Q 24 164 33 174 Q 47 191 73 196 Q 108 199 125 183 L 109 154 L 96 162 L 87 164 Q 71 164 64 157 Q 53 149 50 134 Q 50 117 58 109 Q 65 100 77 97 Q 87 96 95 98 L 109 107 L 125 77 L 103 66 L 94 64 L 75 64 Z M 169 64 Q 148 67 136 78 Q 125 86 119 98 L 114 109 L 111 123 L 111 139 L 113 149 L 124 171 Q 138 190 167 196 L 189 196 L 194 195 Q 209 191 220 182 L 234 166 L 241 151 L 244 135 Q 244 103 228 87 Q 218 74 202 68 L 187 64 L 169 64 Z " /><path fill="rgb(0,0,0)" stroke="rgb(0,0,0)" stroke-width="1" opacity="0" d="M 169.5 96 Q 182.2 94.3 189.5 98 L 203 108.5 Q 210.7 116.8 210 133.5 Q 207.1 149.6 195.5 157 Q 187.4 163.4 172.5 163 Q 158.6 160.4 151 151.5 L 143 135.5 L 143 123.5 Q 146.1 109.1 156.5 102 L 169.5 96 Z " /><path fill="rgb(248,170,0)" stroke="rgb(248,170,0)" stroke-width="1" opacity="0.996078431372549" d="M 79.5 64 L 88.5 64 L 89.5 65 L 100.5 66 Q 114.3 69.8 124 77 L 124 79.5 L 107.5 106 Q 99.3 94.7 78.5 96 Q 66.4 98.4 59.5 106 L 37.5 83 Q 46.3 74.3 58.5 69 L 71.5 65 Q 77.8 66.8 79.5 64 Z " /><path fill="rgb(248,170,0)" stroke="rgb(248,170,0)" stroke-width="1" opacity="0.996078431372549" d="M 173.5 64 Q 207.7 64.8 224 83.5 L 201.5 106 L 198.5 103 Q 190 94 171.5 95 Q 156.8 98.3 149 108.5 Q 141.5 116.5 142 132.5 L 145 143.5 L 153 154.5 L 130.5 176 Q 119 166 114 149.5 L 112 140.5 L 112 119.5 Q 117.8 92.3 136.5 78 L 154.5 68 L 173.5 64 Z " /><path fill="rgb(248,170,0)" stroke="rgb(248,170,0)" stroke-width="1" opacity="0.996078431372549" d="M 59.5 154 Q 64.8 160.2 73.5 163 Q 80.2 165.3 90.5 164 L 109 155 L 124 180.5 L 124 182.5 Q 115 190.5 101.5 194 L 91.5 196 L 76.5 196 L 55.5 190 Q 44.8 184.8 37 176.5 L 59.5 154 Z " /><path fill="rgb(232,113,10)" stroke="rgb(232,113,10)" stroke-width="1" opacity="0.996078431372549" d="M 224.5 84 L 226.5 87 L 224.5 84 Z " /><path fill="rgb(232,113,10)" stroke="rgb(232,113,10)" stroke-width="1" opacity="0.996078431372549" d="M 32.5 89 L 31.5 91 L 32.5 89 Z " /><path fill="rgb(232,113,10)" stroke="rgb(232,113,10)" stroke-width="1" opacity="0.996078431372549" d="M 229.5 90 L 230.5 92 L 229.5 90 Z " /><path fill="rgb(232,113,10)" stroke="rgb(232,113,10)" stroke-width="1" opacity="0.996078431372549" d="M 57.5 108 L 56.5 110 L 57.5 108 Z " /><path fill="rgb(232,113,10)" stroke="rgb(232,113,10)" stroke-width="1" opacity="0.996078431372549" d="M 203.5 108 L 204.5 110 L 203.5 108 Z " /><path fill="rgb(232,113,10)" stroke="rgb(232,113,10)" stroke-width="1" opacity="0.996078431372549" d="M 18.5 123 L 19 125.5 L 18 125.5 L 18.5 123 Z " /><path fill="rgb(232,113,10)" stroke="rgb(232,113,10)" stroke-width="1" opacity="0.996078431372549" d="M 210.5 125 L 211 132.5 L 210 132.5 L 210.5 125 Z " /><path fill="rgb(232,113,10)" stroke="rgb(232,113,10)" stroke-width="1" opacity="0.996078431372549" d="M 18.5 134 L 19 136.5 L 18 136.5 L 18.5 134 Z " /><path fill="rgb(232,113,10)" stroke="rgb(232,113,10)" stroke-width="1" opacity="0.996078431372549" d="M 205.5 147 L 204.5 149 L 205.5 147 Z " /><path fill="rgb(232,113,10)" stroke="rgb(232,113,10)" stroke-width="1" opacity="0.996078431372549" d="M 55.5 149 L 56.5 151 L 55.5 149 Z " /><path fill="rgb(232,113,10)" stroke="rgb(232,113,10)" stroke-width="1" opacity="0.996078431372549" d="M 202.5 151 L 198.5 156 L 202.5 151 Z " /><path fill="rgb(232,113,10)" stroke="rgb(232,113,10)" stroke-width="1" opacity="0.996078431372549" d="M 153.5 154 L 155.5 157 L 153.5 154 Z " /><path fill="rgb(232,113,10)" stroke="rgb(232,113,10)" stroke-width="1" opacity="0.996078431372549" d="M 195.5 157 L 194.5 159 L 195.5 157 Z " /><path fill="rgb(232,113,10)" stroke="rgb(232,113,10)" stroke-width="1" opacity="0.996078431372549" d="M 174.5 163 L 179 163.5 L 174.5 164 L 174.5 163 Z " /><path fill="rgb(232,113,10)" stroke="rgb(232,113,10)" stroke-width="1" opacity="0.996078431372549" d="M 233.5 164 L 232.5 166 L 233.5 164 Z " /><path fill="rgb(232,113,10)" stroke="rgb(232,113,10)" stroke-width="1" opacity="0.996078431372549" d="M 231.5 167 L 230.5 169 L 231.5 167 Z " /><path fill="rgb(232,113,10)" stroke="rgb(232,113,10)" stroke-width="1" opacity="0.996078431372549" d="M 30.5 168 L 31.5 170 L 30.5 168 Z " /><path fill="rgb(232,113,10)" stroke="rgb(232,113,10)" stroke-width="1" opacity="0.996078431372549" d="M 228.5 171 L 225.5 175 L 228.5 171 Z " /><path fill="rgb(232,113,10)" stroke="rgb(232,113,10)" stroke-width="1" opacity="0.996078431372549" d="M 34.5 173 L 36.5 176 L 34.5 173 Z " /><path fill="rgb(232,113,10)" stroke="rgb(232,113,10)" stroke-width="1" opacity="0.996078431372549" d="M 221.5 178 L 218.5 182 L 221.5 178 Z " /><path fill="rgb(232,113,10)" stroke="rgb(232,113,10)" stroke-width="1" opacity="0.996078431372549" d="M 135.5 180 L 137.5 183 L 135.5 180 Z " /><path fill="rgb(232,113,10)" stroke="rgb(232,113,10)" stroke-width="1" opacity="0.996078431372549" d="M 215.5 183 L 214.5 185 L 215.5 183 Z " /><path fill="rgb(232,113,10)" stroke="rgb(232,113,10)" stroke-width="1" opacity="0.996078431372549" d="M 182.5 195 L 185 195.5 L 182.5 196 L 182.5 195 Z " /><path fill="rgb(232,113,10)" stroke="rgb(232,113,10)" stroke-width="1" opacity="1" d="M 37.5 84 L 59 106.5 Q 47.3 115.3 50 138.5 Q 52.9 148.1 59 154.5 L 37.5 176 L 32 170.5 Q 23.9 160.6 20 146.5 L 18 126.5 L 22 107.5 Q 27.4 93.4 37.5 84 Z " /><path fill="rgb(232,113,10)" stroke="rgb(232,113,10)" stroke-width="1" opacity="1" d="M 223.5 84 Q 243.3 100.2 243 136.5 L 239 153.5 Q 233 168 222.5 178 Q 206 195.5 172.5 196 L 154.5 192 Q 140.4 186.6 131 176.5 L 153.5 155 L 164.5 162 L 178.5 164 L 194.5 159 L 203 151.5 L 210 138.5 L 211 125.5 L 208 114.5 L 202 105.5 L 223.5 84 Z " /><path fill="rgb(249,171,0)" stroke="rgb(249,171,0)" stroke-width="1" opacity="0.34901960784313724" d="M 74.5 64 L 79 64.5 L 74.5 65 L 74.5 64 Z " /><path fill="rgb(249,171,0)" stroke="rgb(249,171,0)" stroke-width="1" opacity="0.34901960784313724" d="M 89.5 64 L 94 64.5 L 89.5 65 L 89.5 64 Z " /><path fill="rgb(249,171,0)" stroke="rgb(249,171,0)" stroke-width="1" opacity="0.34901960784313724" d="M 168.5 64 L 173 64.5 L 168.5 65 L 168.5 64 Z " /><path fill="rgb(249,171,0)" stroke="rgb(249,171,0)" stroke-width="1" opacity="0.34901960784313724" d="M 181.5 64 L 187 64.5 L 181.5 65 L 181.5 64 Z " /><path fill="rgb(249,171,0)" stroke="rgb(249,171,0)" stroke-width="1" opacity="0.34901960784313724" d="M 96.5 65 L 99 65.5 L 96.5 66 L 96.5 65 Z " /><path fill="rgb(249,171,0)" stroke="rgb(249,171,0)" stroke-width="1" opacity="0.34901960784313724" d="M 162.5 65 L 165 65.5 L 162.5 66 L 162.5 65 Z " /><path fill="rgb(249,171,0)" stroke="rgb(249,171,0)" stroke-width="1" opacity="0.34901960784313724" d="M 189.5 65 L 192 65.5 L 189.5 66 L 189.5 65 Z " /><path fill="rgb(249,171,0)" stroke="rgb(249,171,0)" stroke-width="1" opacity="0.34901960784313724" d="M 158.5 66 L 161 66.5 L 158.5 67 L 158.5 66 Z " /><path fill="rgb(249,171,0)" stroke="rgb(249,171,0)" stroke-width="1" opacity="0.34901960784313724" d="M 150.5 69 L 152 69.5 L 148.5 71 L 148.5 70 L 150.5 69 Z " /><path fill="rgb(249,171,0)" stroke="rgb(249,171,0)" stroke-width="1" opacity="0.34901960784313724" d="M 205.5 70 L 210 72.5 L 208.5 72 Q 204.8 71.7 205.5 70 Z " /><path fill="rgb(249,171,0)" stroke="rgb(249,171,0)" stroke-width="1" opacity="0.34901960784313724" d="M 146.5 71 L 145.5 73 L 137.5 78 L 139.5 75 L 146.5 71 Z " /><path fill="rgb(249,171,0)" stroke="rgb(249,171,0)" stroke-width="1" opacity="0.34901960784313724" d="M 49.5 73 L 48.5 75 L 45.5 77 L 47.5 74 L 49.5 73 Z " /><path fill="rgb(249,171,0)" stroke="rgb(249,171,0)" stroke-width="1" opacity="0.34901960784313724" d="M 118.5 73 L 119.5 75 L 118.5 73 Z " /><path fill="rgb(249,171,0)" stroke="rgb(249,171,0)" stroke-width="1" opacity="0.34901960784313724" d="M 213.5 74 L 224 82.5 L 221.5 81 Q 215.4 78.3 213.5 74 Z " /><path fill="rgb(249,171,0)" stroke="rgb(249,171,0)" stroke-width="1" opacity="0.34901960784313724" d="M 121.5 75 L 122.5 77 L 121.5 75 Z " /><path fill="rgb(249,171,0)" stroke="rgb(249,171,0)" stroke-width="1" opacity="0.34901960784313724" d="M 43.5 77 L 38.5 83 L 43.5 77 Z " /><path fill="rgb(249,171,0)" stroke="rgb(249,171,0)" stroke-width="1" opacity="0.34901960784313724" d="M 135.5 78 L 126 88.5 L 121.5 95 L 122 93.5 Q 126.9 83.9 135.5 78 Z " /><path fill="rgb(249,171,0)" stroke="rgb(249,171,0)" stroke-width="1" opacity="0.34901960784313724" d="M 123.5 80 L 123 81.5 L 121.5 84 L 122 82.5 L 123.5 80 Z " /><path fill="rgb(249,171,0)" stroke="rgb(249,171,0)" stroke-width="1" opacity="0.34901960784313724" d="M 120.5 85 L 120 86.5 L 118.5 89 L 119 87.5 L 120.5 85 Z " /><path fill="rgb(249,171,0)" stroke="rgb(249,171,0)" stroke-width="1" opacity="0.34901960784313724" d="M 116.5 92 L 116 93.5 L 114.5 96 L 115 94.5 L 116.5 92 Z " /><path fill="rgb(249,171,0)" stroke="rgb(249,171,0)" stroke-width="1" opacity="0.34901960784313724" d="M 171.5 95 L 181 95.5 L 171.5 96 L 171.5 95 Z " /><path fill="rgb(249,171,0)" stroke="rgb(249,171,0)" stroke-width="1" opacity="0.34901960784313724" d="M 78.5 96 L 89 96.5 L 78.5 97 L 78.5 96 Z " /><path fill="rgb(249,171,0)" stroke="rgb(249,171,0)" stroke-width="1" opacity="0.34901960784313724" d="M 120.5 96 L 120 97.5 L 116.5 105 L 116 103.5 L 120.5 96 Z " /><path fill="rgb(249,171,0)" stroke="rgb(249,171,0)" stroke-width="1" opacity="0.34901960784313724" d="M 91.5 97 L 94 97.5 L 91.5 98 L 91.5 97 Z " /><path fill="rgb(249,171,0)" stroke="rgb(249,171,0)" stroke-width="1" opacity="0.34901960784313724" d="M 113.5 97 L 113 98.5 L 111.5 101 L 112 99.5 L 113.5 97 Z " /><path fill="rgb(249,171,0)" stroke="rgb(249,171,0)" stroke-width="1" opacity="0.34901960784313724" d="M 95.5 98 L 102 101.5 L 100.5 101 L 95.5 99 L 95.5 98 Z " /><path fill="rgb(249,171,0)" stroke="rgb(249,171,0)" stroke-width="1" opacity="0.34901960784313724" d="M 192.5 99 L 197 102.5 L 194.5 101 L 192.5 99 Z " /><path fill="rgb(249,171,0)" stroke="rgb(249,171,0)" stroke-width="1" opacity="0.34901960784313724" d="M 67.5 100 L 66.5 102 L 63.5 104 L 65.5 101 L 67.5 100 Z " /><path fill="rgb(249,171,0)" stroke="rgb(249,171,0)" stroke-width="1" opacity="0.34901960784313724" d="M 158.5 100 L 157.5 102 L 158.5 100 Z " /><path fill="rgb(249,171,0)" stroke="rgb(249,171,0)" stroke-width="1" opacity="0.34901960784313724" d="M 103.5 102 L 107.5 106 L 110 104.5 L 109 107 L 107.5 107 L 103.5 102 Z " /><path fill="rgb(249,171,0)" stroke="rgb(249,171,0)" stroke-width="1" opacity="0.34901960784313724" d="M 155.5 102 L 149.5 109 L 155.5 102 Z " /><path fill="rgb(249,171,0)" stroke="rgb(249,171,0)" stroke-width="1" opacity="0.34901960784313724" d="M 198.5 103 L 200.5 106 L 198.5 103 Z " /><path fill="rgb(249,171,0)" stroke="rgb(249,171,0)" stroke-width="1" opacity="0.34901960784313724" d="M 61.5 104 L 60.5 106 L 61.5 104 Z " /><path fill="rgb(249,171,0)" stroke="rgb(249,171,0)" stroke-width="1" opacity="0.34901960784313724" d="M 115.5 106 L 116 107.5 L 114.5 111 L 114 108.5 L 115.5 106 Z " /><path fill="rgb(249,171,0)" stroke="rgb(249,171,0)" stroke-width="1" opacity="0.34901960784313724" d="M 148.5 110 L 147.5 112 L 148.5 110 Z " /><path fill="rgb(249,171,0)" stroke="rgb(249,171,0)" stroke-width="1" opacity="0.34901960784313724" d="M 112.5 116 L 113 118.5 L 112 118.5 L 112.5 116 Z " /><path fill="rgb(249,171,0)" stroke="rgb(249,171,0)" stroke-width="1" opacity="0.34901960784313724" d="M 143.5 120 L 144 122.5 L 143 122.5 L 143.5 120 Z " /><path fill="rgb(249,171,0)" stroke="rgb(249,171,0)" stroke-width="1" opacity="0.34901960784313724" d="M 111.5 122 L 112 138.5 L 111 138.5 L 111.5 122 Z " /><path fill="rgb(249,171,0)" stroke="rgb(249,171,0)" stroke-width="1" opacity="0.34901960784313724" d="M 142.5 125 L 143 132.5 L 142 132.5 L 142.5 125 Z " /><path fill="rgb(249,171,0)" stroke="rgb(249,171,0)" stroke-width="1" opacity="0.34901960784313724" d="M 112.5 141 L 113 144.5 L 112 144.5 L 112.5 141 Z " /><path fill="rgb(249,171,0)" stroke="rgb(249,171,0)" stroke-width="1" opacity="0.34901960784313724" d="M 145.5 142 L 148 146.5 L 146 145.5 L 145.5 142 Z " /><path fill="rgb(249,171,0)" stroke="rgb(249,171,0)" stroke-width="1" opacity="0.34901960784313724" d="M 113.5 146 L 114 148.5 L 113 148.5 L 113.5 146 Z " /><path fill="rgb(249,171,0)" stroke="rgb(249,171,0)" stroke-width="1" opacity="0.34901960784313724" d="M 148.5 148 L 150.5 151 L 148.5 148 Z " /><path fill="rgb(249,171,0)" stroke="rgb(249,171,0)" stroke-width="1" opacity="0.34901960784313724" d="M 151.5 152 L 152.5 154 L 151.5 152 Z " /><path fill="rgb(249,171,0)" stroke="rgb(249,171,0)" stroke-width="1" opacity="0.34901960784313724" d="M 115.5 153 L 117 156.5 L 116 156.5 L 115.5 153 Z " /><path fill="rgb(249,171,0)" stroke="rgb(249,171,0)" stroke-width="1" opacity="0.34901960784313724" d="M 60.5 154 L 62.5 157 L 60.5 154 Z " /><path fill="rgb(249,171,0)" stroke="rgb(249,171,0)" stroke-width="1" opacity="0.34901960784313724" d="M 107.5 154 L 110 155.5 L 111 157.5 L 109 156.5 Q 109.8 154.3 107.5 155 L 106 155.5 L 107.5 154 Z " /><path fill="rgb(249,171,0)" stroke="rgb(249,171,0)" stroke-width="1" opacity="0.34901960784313724" d="M 104.5 156 L 102.5 159 L 104.5 156 Z " /><path fill="rgb(249,171,0)" stroke="rgb(249,171,0)" stroke-width="1" opacity="0.34901960784313724" d="M 64.5 157 L 65.5 159 L 64.5 157 Z " /><path fill="rgb(249,171,0)" stroke="rgb(249,171,0)" stroke-width="1" opacity="0.34901960784313724" d="M 67.5 159 L 72 161.5 L 70.5 162 L 67.5 159 Z " /><path fill="rgb(249,171,0)" stroke="rgb(249,171,0)" stroke-width="1" opacity="0.34901960784313724" d="M 112.5 161 L 115 164.5 L 113 163.5 L 112.5 161 Z " /><path fill="rgb(249,171,0)" stroke="rgb(249,171,0)" stroke-width="1" opacity="0.34901960784313724" d="M 119.5 162 L 122 165.5 L 120 164.5 L 119.5 162 Z " /><path fill="rgb(249,171,0)" stroke="rgb(249,171,0)" stroke-width="1" opacity="0.34901960784313724" d="M 77.5 163 L 80 163.5 L 77.5 164 L 77.5 163 Z " /><path fill="rgb(249,171,0)" stroke="rgb(249,171,0)" stroke-width="1" opacity="0.34901960784313724" d="M 87.5 163 L 91 163.5 L 87.5 164 L 87.5 163 Z " /><path fill="rgb(249,171,0)" stroke="rgb(249,171,0)" stroke-width="1" opacity="0.34901960784313724" d="M 115.5 166 L 118 169.5 L 116 168.5 L 115.5 166 Z " /><path fill="rgb(249,171,0)" stroke="rgb(249,171,0)" stroke-width="1" opacity="0.34901960784313724" d="M 122.5 167 L 131 176.5 L 124 170.5 L 122.5 167 Z " /><path fill="rgb(249,171,0)" stroke="rgb(249,171,0)" stroke-width="1" opacity="0.34901960784313724" d="M 118.5 171 L 121 174.5 L 119 173.5 L 118.5 171 Z " /><path fill="rgb(249,171,0)" stroke="rgb(249,171,0)" stroke-width="1" opacity="0.34901960784313724" d="M 37.5 177 L 40.5 181 L 37.5 177 Z " /><path fill="rgb(249,171,0)" stroke="rgb(249,171,0)" stroke-width="1" opacity="0.34901960784313724" d="M 122.5 178 L 123.5 180 L 122.5 178 Z " /><path fill="rgb(249,171,0)" stroke="rgb(249,171,0)" stroke-width="1" opacity="0.34901960784313724" d="M 42.5 181 L 44.5 184 L 42.5 181 Z " /><path fill="rgb(249,171,0)" stroke="rgb(249,171,0)" stroke-width="1" opacity="0.34901960784313724" d="M 124.5 181 L 125 182.5 L 123 183.5 L 124.5 181 Z " /><path fill="rgb(249,171,0)" stroke="rgb(249,171,0)" stroke-width="1" opacity="0.34901960784313724" d="M 46.5 184 L 47.5 186 L 46.5 184 Z " /><path fill="rgb(249,171,0)" stroke="rgb(249,171,0)" stroke-width="1" opacity="0.34901960784313724" d="M 121.5 184 L 120.5 186 L 121.5 184 Z " /><path fill="rgb(249,171,0)" stroke="rgb(249,171,0)" stroke-width="1" opacity="0.34901960784313724" d="M 49.5 186 L 53 188.5 L 51.5 188 L 49.5 186 Z " /><path fill="rgb(249,171,0)" stroke="rgb(249,171,0)" stroke-width="1" opacity="0.34901960784313724" d="M 118.5 186 L 117.5 188 L 108.5 192 L 108.5 191 L 118.5 186 Z " /><path fill="rgb(249,171,0)" stroke="rgb(249,171,0)" stroke-width="1" opacity="0.34901960784313724" d="M 56.5 190 L 60 191.5 L 58.5 192 L 56.5 190 Z " /><path fill="rgb(249,171,0)" stroke="rgb(249,171,0)" stroke-width="1" opacity="0.34901960784313724" d="M 67.5 194 L 70 194.5 L 67.5 195 L 67.5 194 Z " /><path fill="rgb(249,171,0)" stroke="rgb(249,171,0)" stroke-width="1" opacity="0.34901960784313724" d="M 72.5 195 L 76 195.5 L 72.5 196 L 72.5 195 Z " /><path fill="rgb(249,171,0)" stroke="rgb(249,171,0)" stroke-width="1" opacity="0.34901960784313724" d="M 92.5 195 L 96 195.5 L 92.5 196 L 92.5 195 Z " /><path fill="rgb(233,112,11)" stroke="rgb(233,112,11)" stroke-width="1" opacity="0.3176470588235294" d="M 36.5 83 L 37 84.5 L 31 89.5 L 36.5 83 Z " /><path fill="rgb(233,112,11)" stroke="rgb(233,112,11)" stroke-width="1" opacity="0.3176470588235294" d="M 224.5 83 L 231 90.5 L 227 87.5 L 224.5 83 Z " /><path fill="rgb(233,112,11)" stroke="rgb(233,112,11)" stroke-width="1" opacity="0.3176470588235294" d="M 30.5 91 L 29 93.5 L 27.5 96 L 28 94.5 L 30.5 91 Z " /><path fill="rgb(233,112,11)" stroke="rgb(233,112,11)" stroke-width="1" opacity="0.3176470588235294" d="M 231.5 92 L 232.5 94 L 231.5 92 Z " /><path fill="rgb(233,112,11)" stroke="rgb(233,112,11)" stroke-width="1" opacity="0.3176470588235294" d="M 233.5 95 L 234.5 97 L 233.5 95 Z " /><path fill="rgb(233,112,11)" stroke="rgb(233,112,11)" stroke-width="1" opacity="0.3176470588235294" d="M 26.5 97 L 26 98.5 L 23.5 104 L 23 102.5 L 26.5 97 Z " /><path fill="rgb(233,112,11)" stroke="rgb(233,112,11)" stroke-width="1" opacity="0.3176470588235294" d="M 201.5 106 L 202.5 108 L 201.5 106 Z " /><path fill="rgb(233,112,11)" stroke="rgb(233,112,11)" stroke-width="1" opacity="0.3176470588235294" d="M 57.5 109 L 55.5 112 L 57.5 109 Z " /><path fill="rgb(233,112,11)" stroke="rgb(233,112,11)" stroke-width="1" opacity="0.3176470588235294" d="M 203.5 109 L 204.5 111 L 203.5 109 Z " /><path fill="rgb(233,112,11)" stroke="rgb(233,112,11)" stroke-width="1" opacity="0.3176470588235294" d="M 20.5 110 L 21 112.5 L 20 112.5 L 20.5 110 Z " /><path fill="rgb(233,112,11)" stroke="rgb(233,112,11)" stroke-width="1" opacity="0.3176470588235294" d="M 205.5 112 L 208 116.5 L 207 116.5 L 205.5 112 Z " /><path fill="rgb(233,112,11)" stroke="rgb(233,112,11)" stroke-width="1" opacity="0.3176470588235294" d="M 241.5 113 L 242 115.5 L 241 115.5 L 241.5 113 Z " /><path fill="rgb(233,112,11)" stroke="rgb(233,112,11)" stroke-width="1" opacity="0.3176470588235294" d="M 19.5 114 L 20 116.5 L 19 116.5 L 19.5 114 Z " /><path fill="rgb(233,112,11)" stroke="rgb(233,112,11)" stroke-width="1" opacity="0.3176470588235294" d="M 52.5 117 L 53 118.5 L 51.5 122 L 51 119.5 L 52.5 117 Z " /><path fill="rgb(233,112,11)" stroke="rgb(233,112,11)" stroke-width="1" opacity="0.3176470588235294" d="M 242.5 117 L 243 120.5 L 242 120.5 L 242.5 117 Z " /><path fill="rgb(233,112,11)" stroke="rgb(233,112,11)" stroke-width="1" opacity="0.3176470588235294" d="M 18.5 119 L 19 122.5 L 18 122.5 L 18.5 119 Z " /><path fill="rgb(233,112,11)" stroke="rgb(233,112,11)" stroke-width="1" opacity="0.3176470588235294" d="M 209.5 121 L 210 123.5 L 209 123.5 L 209.5 121 Z " /><path fill="rgb(233,112,11)" stroke="rgb(233,112,11)" stroke-width="1" opacity="0.3176470588235294" d="M 50.5 123 L 51 126.5 L 50 126.5 L 50.5 123 Z " /><path fill="rgb(233,112,11)" stroke="rgb(233,112,11)" stroke-width="1" opacity="0.3176470588235294" d="M 243.5 125 L 244 134.5 L 243 134.5 L 243.5 125 Z " /><path fill="rgb(233,112,11)" stroke="rgb(233,112,11)" stroke-width="1" opacity="0.3176470588235294" d="M 50.5 134 L 51 136.5 L 50 136.5 L 50.5 134 Z " /><path fill="rgb(233,112,11)" stroke="rgb(233,112,11)" stroke-width="1" opacity="0.3176470588235294" d="M 209.5 134 L 210 136.5 L 209 136.5 L 209.5 134 Z " /><path fill="rgb(233,112,11)" stroke="rgb(233,112,11)" stroke-width="1" opacity="0.3176470588235294" d="M 18.5 137 L 19 140.5 L 18 140.5 L 18.5 137 Z " /><path fill="rgb(233,112,11)" stroke="rgb(233,112,11)" stroke-width="1" opacity="0.3176470588235294" d="M 242.5 139 L 243 142.5 L 242 142.5 L 242.5 139 Z " /><path fill="rgb(233,112,11)" stroke="rgb(233,112,11)" stroke-width="1" opacity="0.3176470588235294" d="M 52.5 142 L 55 146.5 L 53 145.5 L 52.5 142 Z " /><path fill="rgb(233,112,11)" stroke="rgb(233,112,11)" stroke-width="1" opacity="0.3176470588235294" d="M 205.5 146 L 204.5 148 L 205.5 146 Z " /><path fill="rgb(233,112,11)" stroke="rgb(233,112,11)" stroke-width="1" opacity="0.3176470588235294" d="M 55.5 148 L 56.5 150 L 55.5 148 Z " /><path fill="rgb(233,112,11)" stroke="rgb(233,112,11)" stroke-width="1" opacity="0.3176470588235294" d="M 203.5 149 L 196.5 157 L 203.5 149 Z " /><path fill="rgb(233,112,11)" stroke="rgb(233,112,11)" stroke-width="1" opacity="0.3176470588235294" d="M 57.5 151 L 59.5 154 L 57.5 151 Z " /><path fill="rgb(233,112,11)" stroke="rgb(233,112,11)" stroke-width="1" opacity="0.3176470588235294" d="M 239.5 152 L 240 153.5 L 238.5 156 L 238 154.5 L 239.5 152 Z " /><path fill="rgb(233,112,11)" stroke="rgb(233,112,11)" stroke-width="1" opacity="0.3176470588235294" d="M 22.5 154 L 25 159.5 L 24 159.5 L 22.5 154 Z " /><path fill="rgb(233,112,11)" stroke="rgb(233,112,11)" stroke-width="1" opacity="0.3176470588235294" d="M 154.5 154 L 160 158.5 L 158.5 158 L 154.5 154 Z " /><path fill="rgb(233,112,11)" stroke="rgb(233,112,11)" stroke-width="1" opacity="0.3176470588235294" d="M 194.5 157 L 193.5 159 L 194.5 157 Z " /><path fill="rgb(233,112,11)" stroke="rgb(233,112,11)" stroke-width="1" opacity="0.3176470588235294" d="M 25.5 161 L 28 164.5 L 26 163.5 L 25.5 161 Z " /><path fill="rgb(233,112,11)" stroke="rgb(233,112,11)" stroke-width="1" opacity="0.3176470588235294" d="M 169.5 162 L 172 162.5 L 169.5 163 L 169.5 162 Z " /><path fill="rgb(233,112,11)" stroke="rgb(233,112,11)" stroke-width="1" opacity="0.3176470588235294" d="M 181.5 162 L 184 162.5 L 181.5 163 L 181.5 162 Z " /><path fill="rgb(233,112,11)" stroke="rgb(233,112,11)" stroke-width="1" opacity="0.3176470588235294" d="M 233.5 165 L 232.5 167 L 233.5 165 Z " /><path fill="rgb(233,112,11)" stroke="rgb(233,112,11)" stroke-width="1" opacity="0.3176470588235294" d="M 28.5 166 L 29.5 168 L 28.5 166 Z " /><path fill="rgb(233,112,11)" stroke="rgb(233,112,11)" stroke-width="1" opacity="0.3176470588235294" d="M 231.5 168 L 229.5 171 L 231.5 168 Z " /><path fill="rgb(233,112,11)" stroke="rgb(233,112,11)" stroke-width="1" opacity="0.3176470588235294" d="M 30.5 169 L 37 176.5 L 33 173.5 L 30.5 169 Z " /><path fill="rgb(233,112,11)" stroke="rgb(233,112,11)" stroke-width="1" opacity="0.3176470588235294" d="M 228.5 172 L 219.5 182 L 228.5 172 Z " /><path fill="rgb(233,112,11)" stroke="rgb(233,112,11)" stroke-width="1" opacity="0.3176470588235294" d="M 131.5 177 L 136.5 183 L 131.5 177 Z " /><path fill="rgb(233,112,11)" stroke="rgb(233,112,11)" stroke-width="1" opacity="0.3176470588235294" d="M 217.5 182 L 215.5 185 L 217.5 182 Z " /><path fill="rgb(233,112,11)" stroke="rgb(233,112,11)" stroke-width="1" opacity="0.3176470588235294" d="M 138.5 183 L 143 186.5 L 141.5 186 L 138.5 183 Z " /><path fill="rgb(233,112,11)" stroke="rgb(233,112,11)" stroke-width="1" opacity="0.3176470588235294" d="M 213.5 185 L 212.5 187 L 210.5 188 L 211.5 186 L 213.5 185 Z " /><path fill="rgb(233,112,11)" stroke="rgb(233,112,11)" stroke-width="1" opacity="0.3176470588235294" d="M 144.5 187 L 151 190.5 L 149.5 191 Q 144.9 189.8 144.5 187 Z " /><path fill="rgb(233,112,11)" stroke="rgb(233,112,11)" stroke-width="1" opacity="0.3176470588235294" d="M 152.5 191 L 156 192.5 L 154.5 193 L 152.5 191 Z " /><path fill="rgb(233,112,11)" stroke="rgb(233,112,11)" stroke-width="1" opacity="0.3176470588235294" d="M 157.5 193 L 160 193.5 L 157.5 194 L 157.5 193 Z " /><path fill="rgb(233,112,11)" stroke="rgb(233,112,11)" stroke-width="1" opacity="0.3176470588235294" d="M 161.5 194 L 164 194.5 L 161.5 195 L 161.5 194 Z " /><path fill="rgb(233,112,11)" stroke="rgb(233,112,11)" stroke-width="1" opacity="0.3176470588235294" d="M 191.5 194 L 194 194.5 L 191.5 195 L 191.5 194 Z " /><path fill="rgb(233,112,11)" stroke="rgb(233,112,11)" stroke-width="1" opacity="0.3176470588235294" d="M 166.5 195 L 170 195.5 L 166.5 196 L 166.5 195 Z " /><path fill="rgb(233,112,11)" stroke="rgb(233,112,11)" stroke-width="1" opacity="0.3176470588235294" d="M 185.5 195 L 189 195.5 L 185.5 196 L 185.5 195 Z " /></svg>